PathFileType	4	(X/Y/Z)	Kaydara																																																																																																																									
DataRate	CameraRate	NumFrames	NumMarkers	Units	OrigDataRate	OrigDataStartFrame	OrigNumFrames																																																																																																																					
30	30	7	41	mm	30	44	349																																																																																																																					
Frame#	Time	EMLA_LFHD			EMLA_RFHD			EMLA_LBHD			EMLA_RBHD			EMLA_LFTShould			EMLA_RFTShould			EMLA_LRRShould			EMLA_RRRShould			EMLA_T10			EMLA_STRN			EMLA_TRUN			EMLA_LSHO			EMLA_LUPA			EMLA_LELB			EMLA_LFRM			EMLA_LWRA			EMLA_LWRB			EMLA_LFIN			EMLA_RSHO			EMLA_RUPA			EMLA_RELB			EMLA_RFRM			EMLA_RWRA			EMLA_RWRB			EMLA_RFIN			EMLA_LFWT			EMLA_RFWT			EMLA_LBWT			EMLA_RBWT			EMLA_LTHI			EMLA_LKNE			EMLA_LSHN			EMLA_LANK			EMLA_LHEE			EMLA_LTOE			EMLA_RTHI			EMLA_RKNE			EMLA_RSHN			EMLA_RANK			EMLA_RHEE			EMLA_RTOE		
		X1	Y1	Z1	X2	Y2	Z2	X3	Y3	Z3	X4	Y4	Z4	X5	Y5	Z5	X6	Y6	Z6	X7	Y7	Z7	X8	Y8	Z8	X9	Y9	Z9	X10	Y10	Z10	X11	Y11	Z11	X12	Y12	Z12	X13	Y13	Z13	X14	Y14	Z14	X15	Y15	Z15	X16	Y16	Z16	X17	Y17	Z17	X18	Y18	Z18	X19	Y19	Z19	X20	Y20	Z20	X21	Y21	Z21	X22	Y22	Z22	X23	Y23	Z23	X24	Y24	Z24	X25	Y25	Z25	X26	Y26	Z26	X27	Y27	Z27	X28	Y28	Z28	X29	Y29	Z29	X30	Y30	Z30	X31	Y31	Z31	X32	Y32	Z32	X33	Y33	Z33	X34	Y34	Z34	X35	Y35	Z35	X36	Y36	Z36	X37	Y37	Z37	X38	Y38	Z38	X39	Y39	Z39	X40	Y40	Z40	X41	Y41	Z41
																																																																																																																												
44	1.443	254.18316	1632.99911	-1919.70306	84.69481	1625.85434	-1930.03189	276.55809	1633.2785	-2069.84116	82.23833	1628.55515	-2083.13873	265.16054	1404.18518	-1987.55219	114.12288	1393.22296	-1983.11523	255.54945	1450.89859	-2137.08023	96.52339	1439.53659	-2130.61295	189.19712	1274.14063	-2178.69965	190.506	1333.55606	-1947.90329	186.05223	1230.72052	-1925.44662	390.10303	1424.1452	-2041.6272	439.37813	1236.86378	-2049.56512	446.92806	1091.60797	-2045.32913	440.12577	956.97701	-2032.45926	349.63737	820.86792	-1949.37881	407.94304	797.00027	-2006.10733	399.17583	767.41714	-1942.50015	-11.67213	1421.48239	-2044.96033	-62.75512	1223.54469	-2034.20837	-71.25429	1079.40094	-2043.64685	-69.36237	977.99515	-2041.87897	12.85112	825.84679	-1938.15002	-41.85224	801.95793	-1998.59268	-45.34971	774.47021	-1939.54361	289.8033	995.58762	-1950.55603	53.15941	982.97226	-1959.61197	264.83006	1013.9711	-2149.34113	89.31757	1014.96307	-2141.06644	313.21829	726.48178	-2129.8056	314.40342	521.57455	-2083.94791	285.78186	340.20428	-2070.95749	286.74181	162.89637	-2140.31448	219.54401	83.73091	-2197.64481	255.33947	74.46416	-1999.15344	58.67575	708.9595	-2148.82446	28.62675	510.05241	-2083.66974	74.23547	289.06328	-2076.87775	39.01028	127.96614	-2153.27896	94.70741	76.45896	-2207.93884	61.44026	71.75853	-2006.19888
45	1.477	255.87982	1632.40646	-1917.2464	86.75285	1625.5394	-1927.96234	278.85986	1633.181	-2067.51434	84.50635	1628.62701	-2081.26343	267.37684	1404.13422	-1985.46432	116.4344	1393.24203	-1981.07788	257.83394	1451.17386	-2135.04425	98.72525	1439.76563	-2129.12491	191.58052	1274.44801	-2177.40189	192.19664	1333.27667	-1946.32462	187.51694	1230.27184	-1924.19144	392.04433	1424.06143	-2039.14154	441.3295	1236.84456	-2047.6973	448.65639	1091.48003	-2043.95279	441.64673	956.819	-2031.60934	350.71808	820.55283	-1949.31961	409.16183	796.76788	-2005.99899	400.07137	766.9648	-1942.53952	-9.7585	1421.53275	-2043.84735	-60.85583	1223.62053	-2033.57269	-69.52249	1079.44992	-2043.19244	-67.63273	978.01292	-2041.56815	14.00484	825.60173	-1937.79587	-40.32593	801.94809	-1998.46603	-44.04059	774.37355	-1939.41925	291.29021	995.12703	-1949.53598	54.45804	983.01186	-1959.33517	266.8388	1013.91747	-2148.33557	91.35746	1014.94705	-2140.59341	314.54092	726.3459	-2129.07944	315.20901	521.41731	-2083.52737	286.19856	340.02434	-2070.6987	286.93222	162.74548	-2140.22568	219.58851	83.71492	-2197.65717	255.31479	74.46338	-1999.19113	59.81016	708.94081	-2148.57468	29.44182	510.08068	-2083.45383	74.57202	289.04381	-2076.71524	39.14692	128.02575	-2153.26431	94.7773	76.44965	-2207.90115	61.44523	71.75017	-2006.19553
46	1.51	257.95324	1631.84937	-1914.59198	88.71171	1625.2681	-1925.86823	281.30585	1632.96494	-2064.61945	87.08677	1628.8884	-2079.19098	268.98138	1403.96759	-1983.2135	117.84513	1393.01422	-1979.95529	260.35107	1451.32339	-2132.84943	101.19243	1440.00031	-2127.52029	194.14282	1274.79149	-2175.88181	193.67241	1332.88635	-1944.61517	189.19371	1230.14915	-1922.52289	394.20063	1423.99796	-2036.48285	443.52783	1236.8325	-2045.53436	450.6377	1091.34621	-2042.21405	443.45821	956.65482	-2030.48828	352.27055	820.18356	-1948.983	410.64846	796.50162	-2005.61447	401.37535	766.47469	-1942.34406	-7.57726	1421.63834	-2042.57111	-58.82331	1223.73962	-2032.78564	-67.6195	1079.65775	-2042.74078	-65.82209	978.22304	-2041.32813	15.50298	825.66017	-1937.51648	-38.70339	801.97792	-1998.33954	-42.61266	774.37149	-1939.39911	292.67132	994.76601	-1948.29376	55.97394	982.76924	-1959.06815	268.90484	1013.98384	-2147.19971	93.39564	1015.06897	-2139.92889	316.01406	726.22505	-2128.29758	316.05709	521.17413	-2082.89917	286.77689	339.87503	-2070.44769	287.1487	162.64332	-2140.14313	219.70259	83.76339	-2197.67258	255.31717	74.47324	-1999.19418	61.22748	708.92189	-2148.25974	30.36673	510.13317	-2083.20435	75.01274	289.01688	-2076.53809	39.32555	128.13891	-2153.22662	94.89794	76.46996	-2207.85965	61.41994	71.7486	-2006.16959
47	1.543	260.12201	1631.13205	-1911.56967	90.91454	1624.93484	-1923.69431	284.28707	1632.85385	-2061.62064	89.98331	1629.11057	-2076.92734	271.50528	1404.03	-1980.84595	119.81208	1392.8241	-1978.41843	263.12538	1451.44211	-2130.46707	103.92178	1440.30807	-2125.75348	196.85379	1275.07324	-2174.18976	195.80166	1332.73071	-1942.63641	190.80778	1229.95033	-1920.69824	396.56746	1423.75046	-2033.57086	445.84282	1236.57219	-2042.95944	452.94682	1091.1084	-2040.17822	445.57148	956.46576	-2028.96851	353.536	819.6183	-1948.43094	412.49138	796.17973	-2004.81125	402.82124	765.88272	-1941.66183	-5.16943	1421.88492	-2041.19095	-56.62236	1224.09828	-2032.06635	-65.54411	1079.93454	-2042.26578	-63.78362	978.45963	-2041.01471	17.08079	825.71022	-1937.24884	-37.02208	802.21413	-1998.27469	-41.1415	774.4693	-1939.38156	293.95721	994.78951	-1946.83105	57.65729	982.75398	-1958.59451	271.18891	1014.09706	-2145.90332	95.69588	1015.18898	-2139.18167	317.49298	726.08116	-2127.34894	317.05734	520.97095	-2082.44629	287.36757	339.70673	-2070.15137	287.48133	162.52247	-2140.01755	219.81478	83.836	-2197.74918	255.34697	74.47724	-1999.20776	62.91051	708.89084	-2147.76031	31.35678	510.18467	-2082.99408	75.54527	288.94888	-2076.32675	39.55627	128.25114	-2153.22327	95.02868	76.47526	-2207.83264	61.45642	71.77685	-2006.19873
48	1.577	262.6153	1630.31738	-1908.31879	93.45769	1624.44092	-1921.23749	287.22946	1632.41943	-2058.03528	93.15863	1629.27444	-2074.56161	274.04762	1403.862	-1978.27957	122.28898	1392.97546	-1976.40915	266.51033	1451.23978	-2127.36664	106.84627	1440.57648	-2123.82523	199.7868	1275.33661	-2172.37747	197.75082	1332.35214	-1940.59372	193.84972	1229.09843	-1921.92139	399.10484	1423.39523	-2030.43381	448.30738	1236.20461	-2040.04166	455.14744	1090.65384	-2037.55295	447.79976	955.99014	-2026.86127	355.73719	819.11018	-1947.18796	414.70509	795.71327	-2003.51028	404.77993	765.18593	-1940.51849	-2.57467	1422.15103	-2039.66492	-54.22667	1224.32182	-2031.03821	-63.42331	1080.31509	-2041.79367	-61.83258	978.8636	-2040.69733	18.66925	825.66162	-1936.91895	-35.26785	802.45247	-1998.17566	-39.5931	774.60091	-1939.34418	295.92672	994.26888	-1945.13657	59.55343	982.71446	-1957.84348	273.77613	1013.97194	-2144.3663	98.26324	1015.21049	-2138.28995	319.11236	725.923	-2126.3652	318.15157	520.74703	-2082.08267	287.99212	339.55475	-2070.04333	287.71612	162.40868	-2139.96704	219.91047	83.81126	-2197.76108	255.34624	74.4637	-1999.25858	64.67795	708.80928	-2147.05154	32.47226	510.22415	-2082.52594	76.11964	288.85666	-2076.04889	39.83352	128.3487	-2153.16162	95.22579	76.48946	-2207.80121	61.49595	71.78204	-2006.18484
49	1.61	265.21662	1629.37164	-1904.78897	96.24733	1624.07913	-1918.65265	290.72821	1632.13089	-2054.51508	96.63279	1629.62982	-2071.99127	276.60522	1403.62854	-1975.38605	124.51368	1392.67548	-1974.37683	269.65458	1451.23367	-2124.55597	110.00723	1440.84656	-2121.68991	202.91283	1275.55359	-2170.30319	199.93355	1332.03018	-1938.35846	195.68773	1228.79349	-1919.56665	401.84944	1423.02063	-2027.07123	450.87887	1235.78323	-2036.80283	457.68509	1090.31876	-2034.71176	450.28481	955.95093	-2024.63821	357.74975	818.3728	-1945.63873	417.13348	795.18745	-2001.65588	406.85478	764.4297	-1938.75031	0.18054	1422.41791	-2038.04306	-51.93465	1224.74632	-2030.12482	-61.29454	1080.69107	-2041.19797	-59.7261	979.14063	-2040.21805	20.01951	825.81985	-1936.40106	-33.5336	802.67296	-1997.91168	-38.07187	774.72359	-1939.15268	297.42676	993.39027	-1943.07526	61.31828	982.49054	-1957.14005	276.49807	1013.87138	-2142.55173	100.98209	1015.25711	-2137.25906	320.80029	725.74326	-2125.18478	319.32774	520.43659	-2081.55029	288.64288	339.29752	-2069.82056	287.97108	162.25191	-2139.92828	220.00889	83.83196	-2197.84943	255.31254	74.45384	-1999.30313	66.34218	708.64929	-2146.15601	33.70548	510.10456	-2081.58615	76.78905	288.64731	-2075.50171	40.20082	128.4668	-2153.06549	95.52728	76.47067	-2207.69974	61.53855	71.78982	-2006.18484
50	1.643	268.24995	1628.37708	-1901.1998	99.0267	1623.83926	-1915.99701	294.51519	1631.72897	-2050.89035	100.31401	1630.00595	-2069.22272	279.42272	1403.45718	-1972.36191	127.41528	1393.0014	-1972.11304	273.08006	1451.2146	-2121.4624	113.37527	1441.05743	-2119.39148	206.25614	1275.77309	-2168.02841	202.35004	1331.71738	-1935.77255	197.80361	1228.4343	-1917.24197	404.73866	1422.63763	-2023.4288	453.67378	1235.3775	-2033.30902	460.26978	1089.86923	-2031.36093	453.00148	955.52574	-2021.67358	360.10094	817.5602	-1943.44879	419.76376	794.71115	-1999.21234	409.23824	763.79395	-1936.48895	3.17656	1422.59018	-2036.18332	-49.29443	1224.93111	-2028.81226	-59.03036	1081.04324	-2040.42923	-57.71506	979.48311	-2039.67438	21.75195	825.87654	-1935.78461	-31.80431	802.90276	-1997.53647	-36.61507	774.85847	-1938.83179	299.5446	992.96112	-1941.21353	63.41241	982.49443	-1956.18912	279.26329	1013.73421	-2140.61142	103.71141	1015.33806	-2136.0173	322.83844	725.55374	-2123.76862	320.606	520.12352	-2080.57846	289.32499	339.07745	-2069.30679	288.36081	162.13682	-2139.74564	220.21616	83.88637	-2197.90192	255.28742	74.44159	-1999.33517	68.08772	708.47122	-2145.00488	34.90472	510.14256	-2080.19348	77.4371	288.43731	-2074.64813	40.54592	128.59872	-2152.92023	95.75838	76.53397	-2207.6593	61.58857	71.83009	-2006.20056
